<?xml version="1.0" encoding="UTF-8"?>
<svg xmlns="http://www.w3.org/2000/svg" viewBox="0 0 100 100">
  <defs>
    <linearGradient id="g" x1="0" y1="0" x2="1" y2="1">
      <stop offset="0" stop-color="#ff7a1a"/>
      <stop offset="1" stop-color="#ff5a00"/>
    </linearGradient>
  </defs>
  <path d="M50 4.6 88.2 26v48L50 95.4 11.8 74V26L50 4.6z" fill="url(#g)" stroke="#ef5a00" stroke-width="0.5"/>
  <path d="M59 31c3 8-3 13-6 18-2 4-2 8 1 12-8-2-13-9-13-17 0-6 3-10 6-14-9 4-16 13-16 24 0 13 10 24 24 24s24-11 24-24c0-9-6-17-14-23 0 0-4-2-6 0z" fill="#1f2937"/>
</svg>
